<svg width="55" height="56" viewBox="0 0 55 56" fill="none" xmlns="http://www.w3.org/2000/svg">
<g clip-path="url(#clip0_10_211)">
<path d="M26.1107 14.657C19.3754 14.657 13.5417 20.3192 13.9149 27.2815C13.7145 29.0945 15.9999 33.4578 18.0257 35.9052C20.7732 40.8627 21.0363 41.4541 21.2176 46.8633C21.3573 47.51 21.6843 47.7094 22.0198 47.7837C25.5552 48.4744 28.2885 48.0838 30.3944 47.8232C30.9008 47.6534 31.2063 47.3315 31.1707 46.8899C31.3726 39.5422 32.4922 39.9885 35.8523 34.3354C37.713 31.7842 38.4002 28.0262 38.4168 26.2801C38.6154 16.5499 29.7305 14.7617 26.1103 14.6567L26.1107 14.657Z" stroke="white" stroke-width="2" stroke-linecap="round" stroke-linejoin="round"/>
<path d="M25.2592 0L24.8518 10.9629L25.2592 0Z" fill="white"/>
<path d="M25.2592 0L24.8518 10.9629" stroke="white" stroke-width="2" stroke-linecap="round" stroke-linejoin="round"/>
<path d="M6.92603 6.32471L14.2594 15.601L6.92603 6.32471Z" fill="white"/>
<path d="M6.92603 6.32471L14.2594 15.601" stroke="white" stroke-width="2" stroke-linecap="round" stroke-linejoin="round"/>
<path d="M0 22.769L10.5926 24.8772L0 22.769Z" fill="white"/>
<path d="M0 22.769L10.5926 24.8772" stroke="white" stroke-width="2" stroke-linecap="round" stroke-linejoin="round"/>
<path d="M37.074 16.0226L43.1851 4.21647L37.074 16.0226Z" fill="white"/>
<path d="M37.074 16.0226L43.1851 4.21647" stroke="white" stroke-width="2" stroke-linecap="round" stroke-linejoin="round"/>
<path d="M20.5225 49.7722L31.5301 49.7947L20.5225 49.7722Z" fill="white"/>
<path d="M20.5225 49.7722L31.5301 49.7947" stroke="white" stroke-linecap="round" stroke-linejoin="round"/>
<path d="M21.3433 50.7009L31.5306 50.6901L21.3433 50.7009Z" fill="white"/>
<path d="M21.3433 50.7009L31.5306 50.6901" stroke="white" stroke-width="0.5" stroke-linecap="round" stroke-linejoin="round"/>
<path d="M21.3433 51.4833L30.7104 51.4391L21.3433 51.4833Z" fill="white"/>
<path d="M21.3433 51.4833L30.7104 51.4391" stroke="white" stroke-linecap="round" stroke-linejoin="round"/>
<path d="M43.1848 24.304L54.1848 23.8824L43.1848 24.304Z" fill="white"/>
<path d="M43.1848 24.304L54.1848 23.8824" stroke="white" stroke-width="2" stroke-linecap="round" stroke-linejoin="round"/>
<path d="M40.7407 37.5267L47.6666 43.4298L40.7407 37.5267Z" fill="white"/>
<path d="M40.7407 37.5267L47.6666 43.4298" stroke="white" stroke-width="2" stroke-linecap="round" stroke-linejoin="round"/>
<path d="M13.037 36.2618L4.48145 41.7432L13.037 36.2618Z" fill="white"/>
<path d="M13.037 36.2618L4.48145 41.7432" stroke="white" stroke-width="2" stroke-linecap="round" stroke-linejoin="round"/>
<path d="M22.1643 52.2938L30.7112 52.2186L22.1643 52.2938Z" fill="white"/>
<path d="M22.1643 52.2938L30.7112 52.2186" stroke="white" stroke-width="0.5" stroke-linecap="round" stroke-linejoin="round"/>
<path d="M22.1643 53.9409L30.7112 53.8657L22.1643 53.9409Z" fill="white"/>
<path d="M22.1643 53.9409L30.7112 53.8657" stroke="white" stroke-linecap="round" stroke-linejoin="round"/>
</g>
<defs>
<clipPath id="clip0_10_211">
<rect width="55" height="56" fill="white"/>
</clipPath>
</defs>
</svg>
