<svg width="57" height="57" viewBox="0 0 57 57" fill="none" xmlns="http://www.w3.org/2000/svg">
<g clip-path="url(#clip0_111_30)">
<rect width="57" height="57" fill="white"/>
<g clip-path="url(#clip1_111_30)" filter="url(#filter0_d_111_30)">
<path d="M27.1107 14.657C20.3754 14.657 14.5417 20.3192 14.9149 27.2815C14.7145 29.0945 16.9999 33.4578 19.0257 35.9052C21.7732 40.8627 22.0363 41.4541 22.2176 46.8633C22.3573 47.51 22.6843 47.7094 23.0198 47.7837C26.5552 48.4744 29.2885 48.0838 31.3944 47.8232C31.9008 47.6534 32.2063 47.3315 32.1707 46.8899C32.3726 39.5422 33.4922 39.9885 36.8523 34.3354C38.713 31.7842 39.4002 28.0262 39.4168 26.2801C39.6154 16.5499 30.7305 14.7617 27.1103 14.6567L27.1107 14.657Z" stroke="#0D7037" stroke-width="2" stroke-linecap="round" stroke-linejoin="round"/>
<path d="M26.2595 0L25.8521 10.9629Z" fill="#0D7037"/>
<path d="M26.2595 0L25.8521 10.9629" stroke="#0D7037" stroke-width="2" stroke-linecap="round" stroke-linejoin="round"/>
<path d="M7.92578 6.32471L15.2591 15.601Z" fill="#0D7037"/>
<path d="M7.92578 6.32471L15.2591 15.601" stroke="#0D7037" stroke-width="2" stroke-linecap="round" stroke-linejoin="round"/>
<path d="M1 22.769L11.5926 24.8772Z" fill="#0D7037"/>
<path d="M1 22.769L11.5926 24.8772" stroke="#0D7037" stroke-width="2" stroke-linecap="round" stroke-linejoin="round"/>
<path d="M38.0742 16.0226L44.1853 4.21647Z" fill="#0D7037"/>
<path d="M38.0742 16.0226L44.1853 4.21647" stroke="#0D7037" stroke-width="2" stroke-linecap="round" stroke-linejoin="round"/>
<path d="M21.5225 49.7722L32.5301 49.7947Z" fill="#0D7037"/>
<path d="M21.5225 49.7722L32.5301 49.7947" stroke="#0D7037" stroke-linecap="round" stroke-linejoin="round"/>
<path d="M22.3433 50.7009L32.5306 50.6901Z" fill="#0D7037"/>
<path d="M22.3433 50.7009L32.5306 50.6901" stroke="#0D7037" stroke-width="0.5" stroke-linecap="round" stroke-linejoin="round"/>
<path d="M22.3433 51.4833L31.7104 51.4391Z" fill="#0D7037"/>
<path d="M22.3433 51.4833L31.7104 51.4391" stroke="#0D7037" stroke-linecap="round" stroke-linejoin="round"/>
<path d="M44.1851 24.304L55.1851 23.8824Z" fill="#0D7037"/>
<path d="M44.1851 24.304L55.1851 23.8824" stroke="#0D7037" stroke-width="2" stroke-linecap="round" stroke-linejoin="round"/>
<path d="M41.7407 37.5267L48.6666 43.4298Z" fill="#0D7037"/>
<path d="M41.7407 37.5267L48.6666 43.4298" stroke="#0D7037" stroke-width="2" stroke-linecap="round" stroke-linejoin="round"/>
<path d="M14.037 36.2618L5.48145 41.7432Z" fill="#0D7037"/>
<path d="M14.037 36.2618L5.48145 41.7432" stroke="#0D7037" stroke-width="2" stroke-linecap="round" stroke-linejoin="round"/>
<path d="M23.1641 52.2938L31.7109 52.2186Z" fill="#0D7037"/>
<path d="M23.1641 52.2938L31.7109 52.2186" stroke="#0D7037" stroke-width="0.5" stroke-linecap="round" stroke-linejoin="round"/>
<path d="M23.1641 53.9409L31.7109 53.8657Z" fill="#0D7037"/>
<path d="M23.1641 53.9409L31.7109 53.8657" stroke="#0D7037" stroke-linecap="round" stroke-linejoin="round"/>
</g>
</g>
<defs>
<filter id="filter0_d_111_30" x="-3" y="0" width="63" height="64" filterUnits="userSpaceOnUse" color-interpolation-filters="sRGB">
<feFlood flood-opacity="0" result="BackgroundImageFix"/>
<feColorMatrix in="SourceAlpha" type="matrix" values="0 0 0 0 0 0 0 0 0 0 0 0 0 0 0 0 0 0 127 0" result="hardAlpha"/>
<feOffset dy="4"/>
<feGaussianBlur stdDeviation="2"/>
<feComposite in2="hardAlpha" operator="out"/>
<feColorMatrix type="matrix" values="0 0 0 0 0 0 0 0 0 0 0 0 0 0 0 0 0 0 0.25 0"/>
<feBlend mode="normal" in2="BackgroundImageFix" result="effect1_dropShadow_111_30"/>
<feBlend mode="normal" in="SourceGraphic" in2="effect1_dropShadow_111_30" result="shape"/>
</filter>
<clipPath id="clip0_111_30">
<rect width="57" height="57" fill="white"/>
</clipPath>
<clipPath id="clip1_111_30">
<rect width="55" height="56" fill="white" transform="translate(1)"/>
</clipPath>
</defs>
</svg>
