<svg width="208" height="200" viewBox="0 0 208 200" fill="none" xmlns="http://www.w3.org/2000/svg">
<g filter="url(#filter0_d_111_11)">
<path d="M171.801 128.005L88.8221 76.4424C88.0941 75.9901 87.9538 75.0938 88.5087 74.4405C89.0636 73.7873 90.1036 73.6245 90.8316 74.0769L173.811 125.639C174.539 126.092 174.679 126.988 174.124 127.641C173.569 128.294 172.529 128.457 171.801 128.005Z" fill="#0D7037" stroke="#0D7037"/>
<path d="M200.672 125.887L117.693 74.3242C116.965 73.8718 116.825 72.9755 117.38 72.3223C117.935 71.6691 118.975 71.5062 119.703 71.9586L202.682 123.521C203.41 123.973 203.55 124.87 202.995 125.523C202.44 126.176 201.4 126.339 200.672 125.887Z" fill="#0D7037" stroke="#0D7037"/>
<path d="M90.3068 76.4449L7.3277 128.007C6.59969 128.46 5.55967 128.297 5.00476 127.644C4.44985 126.99 4.59017 126.094 5.31818 125.642L88.2972 74.0793C89.0252 73.627 90.0653 73.7898 90.6202 74.443C91.1751 75.0962 91.0348 75.9925 90.3068 76.4449Z" fill="#0D7037" stroke="#0D7037"/>
<path d="M119.043 74.1847L104.557 83.1866C103.829 83.639 102.789 83.4761 102.234 82.8229C101.679 82.1697 101.819 81.2734 102.547 80.821L117.034 71.8191C117.762 71.3667 118.802 71.5295 119.357 72.1828C119.912 72.836 119.771 73.7323 119.043 74.1847Z" fill="#0D7037" stroke="#0D7037"/>
<path d="M44.5845 90.8694H29.2274C28.5118 90.8694 27.9316 90.2892 27.9316 89.5735C27.9316 88.8579 28.5118 88.2777 29.2274 88.2777H44.5845C45.3002 88.2777 45.8804 88.8579 45.8804 89.5735C45.8804 90.2892 45.3002 90.8694 44.5845 90.8694Z" fill="#0D7037" stroke="#0D7037"/>
<path d="M45.8802 89.9874V102.118C45.8802 103.062 45.1149 103.828 44.1708 103.828C43.2268 103.828 42.4614 103.062 42.4614 102.118V89.9874C42.4614 89.0433 43.2268 88.278 44.1708 88.278C45.1149 88.278 45.8802 89.0433 45.8802 89.9874Z" fill="#0D7037" stroke="#0D7037"/>
<path d="M30.4957 89.9875V111.621C30.4957 112.565 29.7304 113.33 28.7863 113.33C27.8422 113.33 27.0769 112.565 27.0769 111.621V89.9875C27.0769 89.0434 27.8422 88.2781 28.7863 88.2781C29.7304 88.2781 30.4957 89.0434 30.4957 89.9875Z" fill="#0D7037" stroke="#0D7037"/>
</g>
<g clip-path="url(#clip0_111_11)">
<path d="M90.1107 118.657C83.3754 118.657 77.5417 124.319 77.9149 131.281C77.7145 133.095 79.9999 137.458 82.0257 139.905C84.7732 144.863 85.0363 145.454 85.2176 150.863C85.3573 151.51 85.6843 151.709 86.0198 151.784C89.5552 152.474 92.2885 152.084 94.3944 151.823C94.9008 151.653 95.2063 151.331 95.1707 150.89C95.3726 143.542 96.4922 143.988 99.8523 138.335C101.713 135.784 102.4 132.026 102.417 130.28C102.615 120.55 93.7305 118.762 90.1103 118.657L90.1107 118.657Z" stroke="white" stroke-width="2" stroke-linecap="round" stroke-linejoin="round"/>
<path d="M89.2592 104L88.8518 114.963Z" fill="white"/>
<path d="M89.2592 104L88.8518 114.963" stroke="white" stroke-width="2" stroke-linecap="round" stroke-linejoin="round"/>
<path d="M70.926 110.325L78.2594 119.601Z" fill="white"/>
<path d="M70.926 110.325L78.2594 119.601" stroke="white" stroke-width="2" stroke-linecap="round" stroke-linejoin="round"/>
<path d="M64 126.769L74.5926 128.877Z" fill="white"/>
<path d="M64 126.769L74.5926 128.877" stroke="white" stroke-width="2" stroke-linecap="round" stroke-linejoin="round"/>
<path d="M101.074 120.023L107.185 108.216Z" fill="white"/>
<path d="M101.074 120.023L107.185 108.216" stroke="white" stroke-width="2" stroke-linecap="round" stroke-linejoin="round"/>
<path d="M84.5225 153.772L95.5301 153.795Z" fill="white"/>
<path d="M84.5225 153.772L95.5301 153.795" stroke="white" stroke-linecap="round" stroke-linejoin="round"/>
<path d="M85.3433 154.701L95.5306 154.69Z" fill="white"/>
<path d="M85.3433 154.701L95.5306 154.69" stroke="white" stroke-width="0.5" stroke-linecap="round" stroke-linejoin="round"/>
<path d="M85.3433 155.483L94.7104 155.439Z" fill="white"/>
<path d="M85.3433 155.483L94.7104 155.439" stroke="white" stroke-linecap="round" stroke-linejoin="round"/>
<path d="M107.185 128.304L118.185 127.882Z" fill="white"/>
<path d="M107.185 128.304L118.185 127.882" stroke="white" stroke-width="2" stroke-linecap="round" stroke-linejoin="round"/>
<path d="M104.741 141.527L111.667 147.43Z" fill="white"/>
<path d="M104.741 141.527L111.667 147.43" stroke="white" stroke-width="2" stroke-linecap="round" stroke-linejoin="round"/>
<path d="M77.037 140.262L68.4814 145.743Z" fill="white"/>
<path d="M77.037 140.262L68.4814 145.743" stroke="white" stroke-width="2" stroke-linecap="round" stroke-linejoin="round"/>
<path d="M86.1643 156.294L94.7112 156.219Z" fill="white"/>
<path d="M86.1643 156.294L94.7112 156.219" stroke="white" stroke-width="0.5" stroke-linecap="round" stroke-linejoin="round"/>
<path d="M86.1643 157.941L94.7112 157.866Z" fill="white"/>
<path d="M86.1643 157.941L94.7112 157.866" stroke="white" stroke-linecap="round" stroke-linejoin="round"/>
</g>
<defs>
<filter id="filter0_d_111_11" x="0.131348" y="71.0995" width="207.737" height="65.6275" filterUnits="userSpaceOnUse" color-interpolation-filters="sRGB">
<feFlood flood-opacity="0" result="BackgroundImageFix"/>
<feColorMatrix in="SourceAlpha" type="matrix" values="0 0 0 0 0 0 0 0 0 0 0 0 0 0 0 0 0 0 127 0" result="hardAlpha"/>
<feOffset dy="4"/>
<feGaussianBlur stdDeviation="2"/>
<feComposite in2="hardAlpha" operator="out"/>
<feColorMatrix type="matrix" values="0 0 0 0 0 0 0 0 0 0 0 0 0 0 0 0 0 0 0.25 0"/>
<feBlend mode="normal" in2="BackgroundImageFix" result="effect1_dropShadow_111_11"/>
<feBlend mode="normal" in="SourceGraphic" in2="effect1_dropShadow_111_11" result="shape"/>
</filter>
<clipPath id="clip0_111_11">
<rect width="55" height="56" fill="white" transform="translate(64 104)"/>
</clipPath>
</defs>
</svg>
