<svg width="55" height="56" viewBox="0 0 55 56" fill="none" xmlns="http://www.w3.org/2000/svg">
<g clip-path="url(#clip0_111_12)">
<path d="M26.1107 14.657C19.3754 14.657 13.5417 20.3192 13.9149 27.2815C13.7145 29.0945 15.9999 33.4578 18.0257 35.9052C20.7732 40.8627 21.0363 41.4541 21.2176 46.8633C21.3573 47.51 21.6843 47.7094 22.0198 47.7837C25.5552 48.4744 28.2885 48.0838 30.3944 47.8232C30.9008 47.6534 31.2063 47.3315 31.1707 46.8899C31.3726 39.5422 32.4922 39.9885 35.8523 34.3354C37.713 31.7842 38.4002 28.0262 38.4168 26.2801C38.6154 16.5499 29.7305 14.7617 26.1103 14.6567L26.1107 14.657Z" stroke="white" stroke-width="2" stroke-linecap="round" stroke-linejoin="round"/>
<path d="M25.2595 0L24.8521 10.9629Z" fill="white"/>
<path d="M25.2595 0L24.8521 10.9629" stroke="white" stroke-width="2" stroke-linecap="round" stroke-linejoin="round"/>
<path d="M6.92578 6.32471L14.2591 15.601Z" fill="white"/>
<path d="M6.92578 6.32471L14.2591 15.601" stroke="white" stroke-width="2" stroke-linecap="round" stroke-linejoin="round"/>
<path d="M0 22.769L10.5926 24.8772Z" fill="white"/>
<path d="M0 22.769L10.5926 24.8772" stroke="white" stroke-width="2" stroke-linecap="round" stroke-linejoin="round"/>
<path d="M37.0742 16.0226L43.1853 4.21647Z" fill="white"/>
<path d="M37.0742 16.0226L43.1853 4.21647" stroke="white" stroke-width="2" stroke-linecap="round" stroke-linejoin="round"/>
<path d="M20.5225 49.7722L31.5301 49.7947Z" fill="white"/>
<path d="M20.5225 49.7722L31.5301 49.7947" stroke="white" stroke-linecap="round" stroke-linejoin="round"/>
<path d="M21.3433 50.7009L31.5306 50.6901Z" fill="white"/>
<path d="M21.3433 50.7009L31.5306 50.6901" stroke="white" stroke-width="0.5" stroke-linecap="round" stroke-linejoin="round"/>
<path d="M21.3433 51.4833L30.7104 51.4391Z" fill="white"/>
<path d="M21.3433 51.4833L30.7104 51.4391" stroke="white" stroke-linecap="round" stroke-linejoin="round"/>
<path d="M43.1851 24.304L54.1851 23.8824Z" fill="white"/>
<path d="M43.1851 24.304L54.1851 23.8824" stroke="white" stroke-width="2" stroke-linecap="round" stroke-linejoin="round"/>
<path d="M40.7407 37.5267L47.6666 43.4298Z" fill="white"/>
<path d="M40.7407 37.5267L47.6666 43.4298" stroke="white" stroke-width="2" stroke-linecap="round" stroke-linejoin="round"/>
<path d="M13.037 36.2618L4.48145 41.7432Z" fill="white"/>
<path d="M13.037 36.2618L4.48145 41.7432" stroke="white" stroke-width="2" stroke-linecap="round" stroke-linejoin="round"/>
<path d="M22.1641 52.2938L30.7109 52.2186Z" fill="white"/>
<path d="M22.1641 52.2938L30.7109 52.2186" stroke="white" stroke-width="0.5" stroke-linecap="round" stroke-linejoin="round"/>
<path d="M22.1641 53.9409L30.7109 53.8657Z" fill="white"/>
<path d="M22.1641 53.9409L30.7109 53.8657" stroke="white" stroke-linecap="round" stroke-linejoin="round"/>
</g>
<defs>
<clipPath id="clip0_111_12">
<rect width="55" height="56" fill="white"/>
</clipPath>
</defs>
</svg>
