<svg width="243" height="76" viewBox="0 0 243 76" fill="none" xmlns="http://www.w3.org/2000/svg">
<g filter="url(#filter0_d_109_2)">
<path d="M201.2 66.9921L103.683 6.39594C102.827 5.86431 102.662 4.81101 103.315 4.04333C103.967 3.27565 105.189 3.0843 106.044 3.61593L203.562 64.2121C204.417 64.7437 204.582 65.797 203.93 66.5647C203.278 67.3324 202.055 67.5237 201.2 66.9921Z" fill="#0D7037" stroke="#0D7037"/>
<path d="M235.129 64.5027L137.612 3.90657C136.757 3.37493 136.592 2.32163 137.244 1.55395C137.896 0.786268 139.118 0.594918 139.974 1.12655L237.491 61.7227C238.347 62.2544 238.511 63.3077 237.859 64.0753C237.207 64.843 235.985 65.0344 235.129 64.5027Z" fill="#0D7037" stroke="#0D7037"/>
<path d="M105.428 6.39885L7.91071 66.995C7.05516 67.5267 5.83293 67.3353 5.18079 66.5676C4.52866 65.7999 4.69357 64.7466 5.54913 64.215L103.066 3.61883C103.922 3.0872 105.144 3.27855 105.796 4.04623C106.448 4.81391 106.283 5.86721 105.428 6.39885Z" fill="#0D7037" stroke="#0D7037"/>
<path d="M139.199 3.74262L122.174 14.3217C121.319 14.8533 120.096 14.662 119.444 13.8943C118.792 13.1266 118.957 12.0733 119.813 11.5417L136.837 0.962605C137.693 0.430969 138.915 0.622322 139.567 1.39C140.219 2.15768 140.055 3.21098 139.199 3.74262Z" fill="#0D7037" stroke="#0D7037"/>
<path d="M51.695 23.3505H33.6473C32.8063 23.3505 32.1245 22.6687 32.1245 21.8276C32.1245 20.9866 32.8063 20.3048 33.6473 20.3048H51.695C52.5361 20.3048 53.2178 20.9866 53.2178 21.8276C53.2178 22.6687 52.536 23.3505 51.695 23.3505Z" fill="#0D7037" stroke="#0D7037"/>
<path d="M53.2177 22.314V36.5702C53.2177 37.6797 52.3183 38.5791 51.2088 38.5791C50.0994 38.5791 49.2 37.6797 49.2 36.5702V22.314C49.2 21.2045 50.0994 20.3051 51.2088 20.3051C52.3183 20.3051 53.2177 21.2045 53.2177 22.314Z" fill="#0D7037" stroke="#0D7037"/>
<path d="M35.1379 22.3141V47.7378C35.1379 48.8473 34.2385 49.7467 33.129 49.7467C32.0195 49.7467 31.1201 48.8473 31.1201 47.7378V22.3141C31.1201 21.2046 32.0195 20.3052 33.129 20.3052C34.2385 20.3052 35.1379 21.2046 35.1379 22.3141Z" fill="#0D7037" stroke="#0D7037"/>
</g>
<defs>
<filter id="filter0_d_109_2" x="0.248047" y="0.198116" width="242.544" height="75.5614" filterUnits="userSpaceOnUse" color-interpolation-filters="sRGB">
<feFlood flood-opacity="0" result="BackgroundImageFix"/>
<feColorMatrix in="SourceAlpha" type="matrix" values="0 0 0 0 0 0 0 0 0 0 0 0 0 0 0 0 0 0 127 0" result="hardAlpha"/>
<feOffset dy="4"/>
<feGaussianBlur stdDeviation="2"/>
<feComposite in2="hardAlpha" operator="out"/>
<feColorMatrix type="matrix" values="0 0 0 0 0 0 0 0 0 0 0 0 0 0 0 0 0 0 0.25 0"/>
<feBlend mode="normal" in2="BackgroundImageFix" result="effect1_dropShadow_109_2"/>
<feBlend mode="normal" in="SourceGraphic" in2="effect1_dropShadow_109_2" result="shape"/>
</filter>
</defs>
</svg>
